<svg width="69" height="12" viewBox="0 0 69 12" fill="none" xmlns="http://www.w3.org/2000/svg">
<g clip-path="url(#clip0_230_15)">
<path d="M5.89072 0.933348C6.08793 0.464925 6.75962 0.464925 6.95684 0.933349L8.12079 3.69807C8.20398 3.89555 8.39197 4.03047 8.60776 4.04757L11.629 4.28685C12.1409 4.3274 12.3485 4.95849 11.9585 5.28853L9.65659 7.23648C9.49219 7.37564 9.42035 7.59398 9.47058 7.80199L10.1738 10.7146C10.293 11.2081 9.7496 11.5982 9.31134 11.3337L6.72472 9.77286C6.53996 9.66137 6.3076 9.66137 6.12285 9.77286L3.53621 11.3337C3.09796 11.5982 2.55455 11.2081 2.6737 10.7146L3.37697 7.80199C3.4272 7.59398 3.35539 7.37564 3.19098 7.23648L0.889084 5.28853C0.499077 4.95849 0.706642 4.3274 1.21854 4.28685L4.23981 4.04757C4.45561 4.03047 4.6436 3.89555 4.72674 3.69807L5.89072 0.933348Z" fill="#FFCA41"/>
</g>
<g clip-path="url(#clip1_230_15)">
<path d="M19.8907 0.933348C20.0879 0.464925 20.7596 0.464925 20.9568 0.933349L22.1208 3.69807C22.204 3.89555 22.392 4.03047 22.6078 4.04757L25.629 4.28685C26.1409 4.3274 26.3485 4.95849 25.9585 5.28853L23.6566 7.23648C23.4922 7.37564 23.4203 7.59398 23.4706 7.80199L24.1738 10.7146C24.293 11.2081 23.7496 11.5982 23.3113 11.3337L20.7247 9.77286C20.54 9.66137 20.3076 9.66137 20.1228 9.77286L17.5362 11.3337C17.098 11.5982 16.5545 11.2081 16.6737 10.7146L17.377 7.80199C17.4272 7.59398 17.3554 7.37564 17.191 7.23648L14.8891 5.28853C14.4991 4.95849 14.7066 4.3274 15.2185 4.28685L18.2398 4.04757C18.4556 4.03047 18.6436 3.89555 18.7267 3.69807L19.8907 0.933348Z" fill="#FFCA41"/>
</g>
<g clip-path="url(#clip2_230_15)">
<path d="M33.8907 0.933348C34.0879 0.464925 34.7596 0.464925 34.9568 0.933349L36.1208 3.69807C36.204 3.89555 36.392 4.03047 36.6078 4.04757L39.629 4.28685C40.1409 4.3274 40.3485 4.95849 39.9585 5.28853L37.6566 7.23648C37.4922 7.37564 37.4203 7.59398 37.4706 7.80199L38.1738 10.7146C38.293 11.2081 37.7496 11.5982 37.3113 11.3337L34.7247 9.77286C34.54 9.66137 34.3076 9.66137 34.1228 9.77286L31.5362 11.3337C31.098 11.5982 30.5545 11.2081 30.6737 10.7146L31.377 7.80199C31.4272 7.59398 31.3554 7.37564 31.191 7.23648L28.8891 5.28853C28.4991 4.95849 28.7066 4.3274 29.2185 4.28685L32.2398 4.04757C32.4556 4.03047 32.6436 3.89555 32.7267 3.69807L33.8907 0.933348Z" fill="#FFCA41"/>
</g>
<g clip-path="url(#clip3_230_15)">
<path d="M47.8907 0.933348C48.0879 0.464925 48.7596 0.464925 48.9568 0.933349L50.1208 3.69807C50.204 3.89555 50.392 4.03047 50.6078 4.04757L53.629 4.28685C54.1409 4.3274 54.3485 4.95849 53.9585 5.28853L51.6566 7.23648C51.4922 7.37564 51.4203 7.59398 51.4706 7.80199L52.1738 10.7146C52.293 11.2081 51.7496 11.5982 51.3113 11.3337L48.7247 9.77286C48.54 9.66137 48.3076 9.66137 48.1228 9.77286L45.5362 11.3337C45.098 11.5982 44.5545 11.2081 44.6737 10.7146L45.377 7.80199C45.4272 7.59398 45.3554 7.37564 45.191 7.23648L42.8891 5.28853C42.4991 4.95849 42.7066 4.3274 43.2185 4.28685L46.2398 4.04757C46.4556 4.03047 46.6436 3.89555 46.7267 3.69807L47.8907 0.933348Z" fill="#FFCA41"/>
</g>
<g clip-path="url(#clip4_230_15)">
<path d="M61.8907 0.933348C62.0879 0.464925 62.7596 0.464925 62.9568 0.933349L64.1208 3.69807C64.204 3.89555 64.392 4.03047 64.6078 4.04757L67.629 4.28685C68.1409 4.3274 68.3485 4.95849 67.9585 5.28853L65.6566 7.23648C65.4922 7.37564 65.4203 7.59398 65.4706 7.80199L66.1738 10.7146C66.293 11.2081 65.7496 11.5982 65.3113 11.3337L62.7247 9.77286C62.54 9.66137 62.3076 9.66137 62.1228 9.77286L59.5362 11.3337C59.098 11.5982 58.5545 11.2081 58.6737 10.7146L59.377 7.80199C59.4272 7.59398 59.3554 7.37564 59.191 7.23648L56.8891 5.28853C56.4991 4.95849 56.7066 4.3274 57.2185 4.28685L60.2398 4.04757C60.4556 4.03047 60.6436 3.89555 60.7267 3.69807L61.8907 0.933348Z" fill="#FFCA41"/>
</g>
<defs>
<clipPath id="clip0_230_15">
<rect width="13" height="12" fill="white"/>
</clipPath>
<clipPath id="clip1_230_15">
<rect width="13" height="12" fill="white" transform="translate(14)"/>
</clipPath>
<clipPath id="clip2_230_15">
<rect width="13" height="12" fill="white" transform="translate(28)"/>
</clipPath>
<clipPath id="clip3_230_15">
<rect width="13" height="12" fill="white" transform="translate(42)"/>
</clipPath>
<clipPath id="clip4_230_15">
<rect width="13" height="12" fill="white" transform="translate(56)"/>
</clipPath>
</defs>
</svg>
