<svg width="80" height="80" viewBox="0 0 80 80" fill="none" xmlns="http://www.w3.org/2000/svg">
<path fill-rule="evenodd" clip-rule="evenodd" d="M4.99994 40.0003C4.99994 39.3371 5.2634 38.7014 5.7322 38.2326C6.201 37.7635 6.837 37.5003 7.49994 37.5003H66.465L50.7301 21.7702C50.2605 21.3008 49.9967 20.6641 49.9967 20.0002C49.9967 19.3364 50.2605 18.6997 50.7301 18.2302C51.1994 17.7608 51.8359 17.4971 52.4999 17.4971C53.1639 17.4971 53.8005 17.7608 54.2699 18.2302L74.2699 38.2302C74.5028 38.4625 74.6875 38.7385 74.8135 39.0422C74.9395 39.3457 75.0044 39.6713 75.0044 40.0003C75.0044 40.3291 74.9395 40.6547 74.8135 40.9585C74.6875 41.2622 74.5028 41.5379 74.2699 41.7702L54.2699 61.7702C53.8005 62.2398 53.1639 62.5033 52.4999 62.5033C51.8359 62.5033 51.1994 62.2398 50.7301 61.7702C50.2605 61.3009 49.9967 60.6641 49.9967 60.0003C49.9967 59.3363 50.2605 58.6995 50.7301 58.2302L66.465 42.5003H7.49994C6.837 42.5003 6.201 42.2369 5.7322 41.7681C5.2634 41.2993 4.99994 40.6633 4.99994 40.0003Z" fill="#1F1946"/>
</svg>
