<svg xmlns="http://www.w3.org/2000/svg" fill="none" class="icon icon-arrow" viewBox="0 0 13 11"><path fill="currentColor" fill-rule="evenodd" d="M0.5 5.74704C0.5 5.54813 0.579018 5.35736 0.71967 5.21671C0.860322 5.07606 1.05109 4.99704 1.25 4.99704H9.9395L6.719 1.77804C6.57817 1.63721 6.49905 1.44621 6.49905 1.24704C6.49905 1.04788 6.57817 0.856871 6.719 0.716041C6.85983 0.575211 7.05084 0.496094 7.25 0.496094C7.44916 0.496094 7.64017 0.575211 7.781 0.716041L12.281 5.21604C12.3508 5.28571 12.4063 5.36847 12.4441 5.45959C12.4819 5.55071 12.5013 5.64839 12.5013 5.74704C12.5013 5.84569 12.4819 5.94337 12.4441 6.03449C12.4063 6.12561 12.3508 6.20837 12.281 6.27804L7.781 10.778C7.64017 10.9189 7.44916 10.998 7.25 10.998C7.05084 10.998 6.85983 10.9189 6.719 10.778C6.57817 10.6372 6.49905 10.4462 6.49905 10.247C6.49905 10.0479 6.57817 9.85687 6.719 9.71604L9.9395 6.49704H1.25C1.05109 6.49704 0.860322 6.41802 0.71967 6.27737C0.579018 6.13672 0.5 5.94595 0.5 5.74704Z" clip-rule="evenodd"/></svg>
