<svg width="38" height="38" viewBox="0 0 38 38" fill="none" xmlns="http://www.w3.org/2000/svg">
<path fill-rule="evenodd" clip-rule="evenodd" d="M9.49983 19C9.49983 19.315 9.62494 19.617 9.84764 19.8397C10.0703 20.0624 10.3724 20.1875 10.6873 20.1875H24.4457L19.3466 25.2843C19.2362 25.3947 19.1486 25.5258 19.0888 25.67C19.0291 25.8143 18.9983 25.9689 18.9983 26.125C18.9983 26.2812 19.0291 26.4358 19.0888 26.58C19.1486 26.7243 19.2362 26.8554 19.3466 26.9658C19.457 27.0762 19.5881 27.1638 19.7323 27.2235C19.8766 27.2833 20.0312 27.314 20.1873 27.314C20.3435 27.314 20.4981 27.2833 20.6423 27.2235C20.7866 27.1638 20.9177 27.0762 21.0281 26.9658L28.1531 19.8408C28.2637 19.7305 28.3514 19.5994 28.4113 19.4552C28.4711 19.3109 28.502 19.1562 28.502 19C28.502 18.8438 28.4711 18.6892 28.4113 18.5449C28.3514 18.4006 28.2637 18.2696 28.1531 18.1593L21.0281 11.0343C20.8051 10.8113 20.5027 10.686 20.1873 10.686C19.872 10.686 19.5696 10.8113 19.3466 11.0343C19.1236 11.2573 18.9983 11.5597 18.9983 11.875C18.9983 12.1904 19.1236 12.4928 19.3466 12.7158L24.4457 17.8125H10.6873C10.3724 17.8125 10.0703 17.9376 9.84764 18.1603C9.62494 18.383 9.49983 18.6851 9.49983 19Z" fill="#1F1946"/>
</svg>